<svg xmlns="http://www.w3.org/2000/svg" aria-hidden="true" style="position:absolute;width:0;height:0;overflow:hidden">
    <defs>
        <symbol id="icon-reviews-arrow-up" viewBox="0 0 16 32">
            <path d="M0 9.778 8 0l8 9.778H9.386V32H6.615V9.778H.001z" />
        </symbol>
        <symbol id="icon-yahts-arrow-left" viewBox="0 0 72 32">
            <path d="M22 0 0 16l22 16V18.771h50v-5.543H22V-.001z" />
        </symbol>
        <symbol id="icon-yahts-arrow-right" viewBox="0 0 72 32">
            <path d="m50 0 22 16-22 16V18.771H0v-5.543h50V-.001z" />
        </symbol>
        <symbol id="icon-facebook" viewBox="0 0 18 32">
            <path
                d="M14.45 5.602h2.924v-4.947c-1.416-0.147-2.839-0.22-4.262-0.218-4.231 0-7.124 2.582-7.124 7.311v4.076h-4.776v5.538h4.776v14.187h5.724v-14.187h4.76l0.716-5.538h-5.476v-3.531c0-1.633 0.436-2.691 2.738-2.691z">
            </path>
        </symbol>
        <symbol id="icon-instagram" viewBox="0 0 32 32">
            <path
                d="M23.983 6.229c-0.354 0-0.701 0.105-0.996 0.302s-0.524 0.477-0.66 0.804c-0.136 0.327-0.171 0.688-0.102 1.035s0.24 0.667 0.491 0.918c0.251 0.251 0.57 0.421 0.917 0.49s0.708 0.034 1.035-0.102c0.328-0.136 0.607-0.365 0.804-0.66s0.302-0.641 0.302-0.996c0-0.475-0.189-0.931-0.525-1.267s-0.792-0.525-1.267-0.525zM30.852 9.843c-0.029-1.239-0.261-2.465-0.687-3.629-0.38-0.996-0.971-1.898-1.732-2.643-0.739-0.765-1.643-1.353-2.643-1.717-1.161-0.439-2.388-0.676-3.629-0.702-1.583-0.090-2.091-0.090-6.152-0.090s-4.57 0-6.152 0.090c-1.241 0.026-2.468 0.263-3.629 0.702-0.998 0.368-1.901 0.955-2.643 1.717-0.765 0.739-1.353 1.643-1.717 2.643-0.439 1.161-0.676 2.388-0.702 3.629-0.090 1.583-0.090 2.091-0.090 6.153s0 4.57 0.090 6.152c0.026 1.241 0.263 2.468 0.702 3.629 0.365 1 0.952 1.904 1.717 2.643 0.742 0.762 1.645 1.349 2.643 1.717 1.161 0.439 2.388 0.676 3.629 0.702 1.583 0.090 2.091 0.090 6.152 0.090s4.57 0 6.152-0.090c1.241-0.026 2.468-0.263 3.629-0.702 1-0.365 1.904-0.952 2.643-1.717 0.765-0.743 1.356-1.645 1.732-2.643 0.426-1.164 0.658-2.39 0.687-3.629 0-1.583 0.090-2.091 0.090-6.152s0-4.57-0.090-6.153zM28.164 21.969c-0.011 0.948-0.183 1.887-0.508 2.778-0.238 0.65-0.621 1.237-1.12 1.717-0.484 0.493-1.070 0.876-1.717 1.12-0.891 0.325-1.83 0.497-2.778 0.508-1.493 0.075-2.046 0.090-5.973 0.090s-4.48 0-5.973-0.090c-0.984 0.018-1.964-0.133-2.897-0.448-0.619-0.257-1.178-0.638-1.643-1.12-0.496-0.48-0.874-1.068-1.105-1.717-0.365-0.903-0.567-1.864-0.597-2.837 0-1.493-0.090-2.046-0.090-5.973s0-4.48 0.090-5.973c0.007-0.969 0.184-1.929 0.523-2.837 0.263-0.63 0.666-1.192 1.18-1.643 0.454-0.513 1.014-0.921 1.643-1.195 0.91-0.328 1.87-0.5 2.837-0.508 1.493 0 2.046-0.090 5.973-0.090s4.48 0 5.973 0.090c0.948 0.011 1.887 0.183 2.778 0.508 0.679 0.252 1.288 0.661 1.777 1.195 0.489 0.459 0.872 1.020 1.12 1.643 0.332 0.909 0.504 1.869 0.508 2.837 0.075 1.493 0.090 2.046 0.090 5.973s-0.015 4.48-0.090 5.973zM16.008 8.335c-1.514 0.003-2.994 0.455-4.252 1.298s-2.237 2.041-2.815 3.441c-0.578 1.4-0.727 2.94-0.43 4.425s1.028 2.849 2.1 3.919c1.072 1.070 2.437 1.798 3.923 2.092s3.025 0.142 4.424-0.439c1.399-0.58 2.595-1.562 3.436-2.822s1.29-2.74 1.29-4.255c0.002-1.008-0.195-2.006-0.58-2.937s-0.951-1.777-1.664-2.489c-0.713-0.712-1.56-1.276-2.492-1.659s-1.931-0.579-2.939-0.575zM16.008 20.969c-0.983 0-1.945-0.292-2.763-0.838s-1.455-1.323-1.832-2.232c-0.376-0.909-0.475-1.909-0.283-2.873s0.665-1.851 1.361-2.546c0.695-0.695 1.582-1.169 2.546-1.361s1.965-0.093 2.873 0.283 1.685 1.014 2.232 1.832c0.546 0.818 0.838 1.779 0.838 2.763 0 0.653-0.129 1.3-0.379 1.903s-0.616 1.152-1.078 1.613c-0.462 0.462-1.010 0.828-1.613 1.078s-1.25 0.379-1.903 0.379z">
            </path>
        </symbol>
        <symbol id="icon-youtube" viewBox="0 0 32 32">
            <path
                d="M24.24 6c-1.36-0.080-4.16-0.16-8.4-0.16h-0.56c-4.080 0-6.8 0.080-8.16 0.24-1.84 0.16-3.12 0.64-3.84 1.28-0.64 0.56-1.12 1.6-1.28 2.96-0.080 0.88-0.16 2.72-0.16 5.52v0.4c0 2.64 0.080 4.48 0.24 5.36 0.24 1.28 0.64 2.24 1.44 2.8 0.8 0.64 2.16 1.040 4.080 1.2 1.36 0.080 4.16 0.16 8.4 0.16h0.56c4.080 0 6.8-0.080 8.16-0.24 1.84-0.16 3.12-0.64 3.84-1.28 0.64-0.56 1.12-1.6 1.28-2.96 0.080-0.88 0.16-2.72 0.16-5.52v-0.4c0-2.64-0.080-4.48-0.24-5.36-0.24-1.28-0.64-2.24-1.44-2.8-0.8-0.64-2.16-1.040-4.080-1.2zM21.12 15.84l-8.8 5.28v-10.56l8.8 5.28z">
            </path>
        </symbol>
        <symbol id="icon-rent-arrow" viewBox="0 0 64 32">
            <path d="M44.444.604 64 16 44.444 31.396V18.667H0v-5.333h44.444V.605z" />
        </symbol>
        <symbol id="icon-modal-close" viewBox="0 0 32 32">
            <path stroke-linecap="round" stroke-linejoin="round" stroke-width="1.733" d="M24 8 8 24M8 8l16 16" />
        </symbol>
        <symbol id="icon-header-burger-menu" viewBox="0 0 32 32">
            <path
                d="M2.667 7.993c0-.733.595-1.327 1.327-1.327h10.68a1.326 1.326 0 0 1 0 2.654H3.994a1.326 1.326 0 0 1-1.327-1.327zm0 8.007c0-.733.595-1.327 1.327-1.327h24.013a1.326 1.326 0 0 1 0 2.654H3.994A1.326 1.326 0 0 1 2.667 16zm1.326 6.68a1.326 1.326 0 0 0 0 2.654h16.013a1.326 1.326 0 0 0 0-2.654H3.993z" />
        </symbol>
        <symbol id="icon-boat" viewBox="0 0 28 32">
            <path
                d="M12.972 0.118c-0.132 0.076-0.313 0.236-0.382 0.354-0.132 0.215-0.139 1-0.139 10.799v10.569h1.951l-0.042-21.278-0.25-0.25c-0.313-0.299-0.771-0.375-1.139-0.194z">
            </path>
            <path
                d="M16.354 11.049v7.368l0.514-0.049c0.278-0.021 1.229-0.069 2.104-0.097 1.764-0.056 3.34 0.042 4.868 0.299 1.285 0.222 1.458 0.215 1.694-0.049 0.215-0.257 0.208-0.438-0.118-1.924-0.91-4.174-3.278-8.188-6.486-10.972-0.743-0.66-2.104-1.708-2.431-1.875-0.139-0.069-0.146 0.299-0.146 7.299z">
            </path>
            <path
                d="M10.181 9.257c-1.806 2.882-4.486 5.722-7.521 7.972-0.514 0.382-0.958 0.75-0.986 0.819-0.097 0.257-0.042 0.528 0.16 0.708l0.194 0.201h8.465v-5.042c0-2.771-0.014-5.035-0.035-5.035-0.028 0-0.153 0.167-0.278 0.375z">
            </path>
            <path d="M0 24.639v0.882h28.479v-1.764h-28.479z"></path>
            <path
                d="M0.083 27.514c0 0.132 1.444 2.757 1.715 3.118 0.347 0.458 0.958 0.917 1.535 1.153l0.451 0.174 7.528 0.028c4.903 0.014 7.806-0.007 8.326-0.069 1.972-0.194 3.743-0.861 5.382-1.986 0.66-0.458 2.292-1.986 2.472-2.313l0.097-0.181h-13.757c-7.91 0-13.75 0.035-13.75 0.076z">
            </path>
        </symbol>
        <symbol id="icon-arrow" viewBox="0 0 16 32">
            <path d="M0 9.778l8-9.778 8 9.778h-6.614v22.222h-2.771v-22.222h-6.614z"></path>
        </symbol>
        <symbol id="icon-Arrow-2-Stroke" viewBox="0 0 58 32">
            <path fill="#f6f5ef" style="fill: var(--color1, #f6f5ef)"
                d="M40 2.144l17.6 13.856-17.6 13.856v-11.456h-40v-4.8h40v-11.456z"></path>
        </symbol>
    </defs>
</svg>